<svg width="24" height="24" viewBox="0 0 24 24" fill="none" xmlns="http://www.w3.org/2000/svg">
<path d="M12 2C6.5 2 2 6 2 10.8889C2 13.3333 3.1 15.5556 4.8 17C4.8 17.6667 4.4 19.4444 2 22C4.4 21.8889 6.6 20.8889 8.5 19.2222C9.6 19.5556 10.8 19.7778 12 19.7778C17.5 19.7778 22 15.7778 22 10.8889C22 6 17.5 2 12 2ZM12 17.5556C7.6 17.5556 4 14.5556 4 10.8889C4 7.22222 7.6 4.22222 12 4.22222C16.4 4.22222 20 7.22222 20 10.8889C20 14.5556 16.4 17.5556 12 17.5556ZM12.2 5.88889C11.3 5.88889 10.6 6.11111 10.1 6.44444C9.5 6.88889 9.2 7.55556 9.3 8.33333H11.3C11.3 8 11.4 7.77778 11.6 7.66667C11.8 7.55556 12 7.44444 12.3 7.44444C12.6 7.44444 12.9 7.55556 13.1 7.77778C13.3 8 13.4 8.22222 13.4 8.55556C13.4 8.88889 13.3 9.11111 13.2 9.33333C13 9.55556 12.8 9.77778 12.6 9.88889C12.1 10.2222 11.7 10.5556 11.5 10.7778C11.1 11.1111 11 11.4444 11 12H13C13 11.6667 13.1 11.4444 13.1 11.2222C13.2 11 13.4 10.8889 13.6 10.6667C14.1 10.4444 14.4 10.1111 14.7 9.66667C15 9.22222 15.1 8.77778 15.1 8.33333C15.1 7.55556 14.8 6.88889 14.3 6.44444C13.9 6.11111 13.1 5.88889 12.2 5.88889ZM11 13.1111V15.3333H13V13.1111H11Z" fill="#F59D02"/>
</svg>
