<svg width="20" height="20" viewBox="0 0 20 20" fill="none" xmlns="http://www.w3.org/2000/svg">
<path fill-rule="evenodd" clip-rule="evenodd" d="M17.7127 10C17.7127 10.34 17.6818 10.66 17.6407 10.98L19.8099 12.63C20.0052 12.78 20.0566 13.05 19.9333 13.27L17.8772 16.73C17.7846 16.89 17.6099 16.98 17.4351 16.98C17.3734 16.98 17.3117 16.97 17.25 16.95L14.6902 15.95C14.1556 16.34 13.5799 16.68 12.9528 16.93L12.5621 19.58C12.5313 19.82 12.3154 20 12.0584 20H7.94616C7.68915 20 7.47326 19.82 7.44242 19.58L7.05176 16.93C6.42464 16.68 5.84894 16.35 5.31435 15.95L2.7545 16.95C2.70309 16.97 2.64141 16.98 2.57973 16.98C2.39468 16.98 2.21991 16.89 2.12738 16.73L0.0712766 13.27C-0.0520898 13.05 -0.000687145 12.78 0.194643 12.63L2.36384 10.98C2.32271 10.66 2.29187 10.33 2.29187 10C2.29187 9.67 2.32271 9.34 2.36384 9.02L0.194643 7.37C-0.000687145 7.22 -0.0623703 6.95 0.0712766 6.73L2.12738 3.27C2.21991 3.11 2.39468 3.02 2.56945 3.02C2.63113 3.02 2.69281 3.03 2.7545 3.05L5.31435 4.05C5.84894 3.66 6.42464 3.32 7.05176 3.07L7.44242 0.42C7.47326 0.18 7.68915 0 7.94616 0H12.0584C12.3154 0 12.5313 0.18 12.5621 0.42L12.9528 3.07C13.5799 3.32 14.1556 3.65 14.6902 4.05L17.25 3.05C17.3014 3.03 17.3631 3.02 17.4248 3.02C17.6099 3.02 17.7846 3.11 17.8772 3.27L19.9333 6.73C20.0566 6.95 20.0052 7.22 19.8099 7.37L17.6407 9.02C17.6818 9.34 17.7127 9.66 17.7127 10ZM15.6559 10C15.6559 9.79 15.6456 9.58 15.6045 9.27L15.4605 8.14L16.3755 7.44L17.4755 6.59L16.7559 5.38L15.4503 5.89L14.3605 6.32L13.425 5.62C13.0138 5.32 12.6026 5.09 12.1605 4.91L11.0708 4.48L10.9063 3.35L10.7109 2H9.28194L9.07633 3.35L8.91184 4.48L7.8221 4.91C7.4006 5.08 6.9791 5.32 6.53704 5.64L5.61179 6.32L4.54261 5.9L3.23699 5.39L2.51735 6.6L3.62765 7.44L4.54261 8.14L4.39869 9.27C4.36785 9.57 4.34728 9.8 4.34728 10C4.34728 10.2 4.36785 10.43 4.39869 10.74L4.54261 11.87L3.62765 12.57L2.51735 13.41L3.23699 14.62L4.54261 14.11L5.63235 13.68L6.56788 14.38C6.9791 14.68 7.39032 14.91 7.83238 15.09L8.92212 15.52L9.08661 16.65L9.28194 18H10.7212L10.9268 16.65L11.0913 15.52L12.181 15.09C12.6026 14.92 13.0241 14.68 13.4661 14.36L14.3914 13.68L15.4605 14.1L16.7662 14.61L17.4858 13.4L16.3755 12.56L15.4605 11.86L15.6045 10.73C15.6353 10.43 15.6559 10.21 15.6559 10ZM10.003 6C7.73098 6 5.89077 7.79 5.89077 10C5.89077 12.21 7.73098 14 10.003 14C12.275 14 14.1152 12.21 14.1152 10C14.1152 7.79 12.275 6 10.003 6ZM7.94562 10C7.94562 11.1 8.87087 12 10.0017 12C11.1326 12 12.0578 11.1 12.0578 10C12.0578 8.9 11.1326 8 10.0017 8C8.87087 8 7.94562 8.9 7.94562 10Z" fill="#E6E9ED"/>
</svg>
