<svg width="22" height="22" viewBox="0 0 22 22" fill="none" xmlns="http://www.w3.org/2000/svg">
<path d="M13.5 21V21.75H14.25V21H13.5ZM8.5 21H7.75V21.75H8.5V21ZM13.5 1H14.25V0.25H13.5V1ZM8.5 1V0.25H7.75V1H8.5ZM6 21V21.75H6.75V21H6ZM1 21H0.25V21.75H1V21ZM6 11H6.75V10.25H6V11ZM1 11V10.25H0.25V11H1ZM16 7.25V6.5H15.25V7.25H16ZM16 21H15.25V21.75H16V21ZM21 7.25H21.75V6.5H21V7.25ZM21 21V21.75H21.75V21H21ZM13.5 20.25H8.5V21.75H13.5V20.25ZM12.75 1V21H14.25V1H12.75ZM8.5 1.75H13.5V0.25H8.5V1.75ZM9.25 21V1H7.75V21H9.25ZM6 20.25H1V21.75H6V20.25ZM5.25 11V21H6.75V11H5.25ZM1 11.75H6V10.25H1V11.75ZM1.75 21V11H0.25V21H1.75ZM15.25 7.25V21H16.75V7.25H15.25ZM21 6.5H16V8H21V6.5ZM21.75 21V7.25H20.25V21H21.75ZM16 21.75H21V20.25H16V21.75Z" fill="#E6E9ED"/>
</svg>
