<svg
        width="20"
        height="20"
        viewBox="0 0 20 20"
        fill="none"
        xmlns="http://www.w3.org/2000/svg"
      >
        <path
          fill-rule="evenodd"
          clip-rule="evenodd"
          d="M10 0C9.58985 0 9.1965 0.150511 8.90648 0.418421C8.61647 0.686332 8.45353 1.0497 8.45353 1.42858V1.57144C6.70728 1.90127 5.1379 2.77806 4.01076 4.05355C2.88362 5.32904 2.26789 6.92497 2.26767 8.57148V14.2858L0.404178 16.183C-0.497412 17.1015 0.207777 18.5715 1.54856 18.5715H7.32152C7.59299 19.0059 7.98343 19.3665 8.4536 19.6172C8.92377 19.868 9.4571 20 10 20C10.5429 20 11.0762 19.868 11.5464 19.6172C12.0166 19.3665 12.407 19.0059 12.6785 18.5715H18.4514C19.7922 18.5715 20.4974 17.1001 19.5958 16.183L17.7323 14.2858V8.57148C17.7321 6.92497 17.1164 5.32904 15.9892 4.05355C14.8621 2.77806 13.2927 1.90127 11.5465 1.57144V1.42858C11.5465 1.0497 11.3835 0.686332 11.0935 0.418421C10.8035 0.150511 10.4101 0 10 0ZM4.58737 15.1144L3.98425 15.7258L3.29452 16.4287H16.7055L16.0142 15.7258L15.4126 15.113V8.57148C15.4126 7.91487 15.2726 7.26469 15.0006 6.65805C14.7286 6.05142 14.3299 5.50022 13.8273 5.03593C13.3247 4.57163 12.728 4.20333 12.0713 3.95206C11.4146 3.70078 10.7108 3.57145 10 3.57145C9.2892 3.57145 8.58537 3.70078 7.92868 3.95206C7.27199 4.20333 6.6753 4.57163 6.17269 5.03593C5.67008 5.50022 5.27139 6.05142 4.99938 6.65805C4.72737 7.26469 4.58737 7.91487 4.58737 8.57148V15.1144Z"
          fill="#F3F5F8"
        />
      </svg>