<svg width="30" height="30" viewBox="0 0 30 30" fill="none" xmlns="http://www.w3.org/2000/svg">
<path d="M25.5 0H4.5C2.01472 0 0 2.01472 0 4.5V25.5C0 27.9853 2.01472 30 4.5 30H25.5C27.9853 30 30 27.9853 30 25.5V4.5C30 2.01472 27.9853 0 25.5 0Z" fill="#46AF6A"/>
<path fill-rule="evenodd" clip-rule="evenodd" d="M7 10.2C7 9.536 7.57946 9 8.2973 9C9.01514 9 9.59459 9.536 9.59459 10.2C9.59459 10.864 9.01514 11.4 8.2973 11.4C7.57946 11.4 7 10.864 7 10.2ZM7 15C7 14.336 7.57946 13.8 8.2973 13.8C9.01514 13.8 9.59459 14.336 9.59459 15C9.59459 15.664 9.01514 16.2 8.2973 16.2C7.57946 16.2 7 15.664 7 15ZM8.2973 18.6C7.57946 18.6 7 19.144 7 19.8C7 20.456 7.58812 21 8.2973 21C9.00649 21 9.59459 20.456 9.59459 19.8C9.59459 19.144 9.01514 18.6 8.2973 18.6ZM23 20.6H10.8919V19H23V20.6ZM10.8919 15.8H23V14.2H10.8919V15.8ZM10.8919 11V9.4H23V11H10.8919Z" fill="white"/>
</svg>
