<svg width="20" height="20" viewBox="0 0 20 20" fill="none" xmlns="http://www.w3.org/2000/svg">
<mask id="path-1-inside-1_1561_687" fill="white">
<path fill-rule="evenodd" clip-rule="evenodd" d="M0 0.5C0 0.223858 0.223858 0 0.5 0H19.5C19.7761 0 20 0.223858 20 0.5V4.5C20 4.77614 19.7761 5 19.5 5H0.5C0.223857 5 0 4.77614 0 4.5V0.5ZM0 8C0 7.72386 0.223858 7.5 0.5 7.5H19.5C19.7761 7.5 20 7.72386 20 8V12C20 12.2761 19.7761 12.5 19.5 12.5H0.5C0.223857 12.5 0 12.2761 0 12V8ZM0.5 15C0.223858 15 0 15.2239 0 15.5V19.5C0 19.7761 0.223857 20 0.5 20H19.5C19.7761 20 20 19.7761 20 19.5V15.5C20 15.2239 19.7761 15 19.5 15H0.5Z"/>
</mask>
<path d="M0.5 -1.5C-0.60457 -1.5 -1.5 -0.604569 -1.5 0.5H1.5C1.5 1.05228 1.05229 1.5 0.5 1.5V-1.5ZM19.5 -1.5H0.5V1.5H19.5V-1.5ZM21.5 0.5C21.5 -0.60457 20.6046 -1.5 19.5 -1.5V1.5C18.9477 1.5 18.5 1.05229 18.5 0.5H21.5ZM21.5 4.5V0.5H18.5V4.5H21.5ZM19.5 6.5C20.6046 6.5 21.5 5.60457 21.5 4.5H18.5C18.5 3.94772 18.9477 3.5 19.5 3.5V6.5ZM0.5 6.5H19.5V3.5H0.5V6.5ZM-1.5 4.5C-1.5 5.60457 -0.604571 6.5 0.5 6.5V3.5C1.05229 3.5 1.5 3.94772 1.5 4.5H-1.5ZM-1.5 0.5V4.5H1.5V0.5H-1.5ZM0.5 6C-0.60457 6 -1.5 6.89543 -1.5 8H1.5C1.5 8.55228 1.05229 9 0.5 9V6ZM19.5 6H0.5V9H19.5V6ZM21.5 8C21.5 6.89543 20.6046 6 19.5 6V9C18.9477 9 18.5 8.55229 18.5 8H21.5ZM21.5 12V8H18.5V12H21.5ZM19.5 14C20.6046 14 21.5 13.1046 21.5 12H18.5C18.5 11.4477 18.9477 11 19.5 11V14ZM0.5 14H19.5V11H0.5V14ZM-1.5 12C-1.5 13.1046 -0.604572 14 0.5 14V11C1.05229 11 1.5 11.4477 1.5 12H-1.5ZM-1.5 8V12H1.5V8H-1.5ZM1.5 15.5C1.5 16.0523 1.05229 16.5 0.5 16.5V13.5C-0.60457 13.5 -1.5 14.3954 -1.5 15.5H1.5ZM1.5 19.5V15.5H-1.5V19.5H1.5ZM0.5 18.5C1.05229 18.5 1.5 18.9477 1.5 19.5H-1.5C-1.5 20.6046 -0.604572 21.5 0.5 21.5V18.5ZM19.5 18.5H0.5V21.5H19.5V18.5ZM18.5 19.5C18.5 18.9477 18.9477 18.5 19.5 18.5V21.5C20.6046 21.5 21.5 20.6046 21.5 19.5H18.5ZM18.5 15.5V19.5H21.5V15.5H18.5ZM19.5 16.5C18.9477 16.5 18.5 16.0523 18.5 15.5H21.5C21.5 14.3954 20.6046 13.5 19.5 13.5V16.5ZM0.5 16.5H19.5V13.5H0.5V16.5Z" fill="#E6E9ED" mask="url(#path-1-inside-1_1561_687)"/>
</svg>
