<svg width="24" height="24" viewBox="0 0 24 24" fill="none" xmlns="http://www.w3.org/2000/svg">
<path d="M12 0C5.4 0 0 4.8 0 10.6667C0 13.4667 1.2 16.1333 3.36 18C3.36 18.8 2.88 20.9333 0 24C0 24 4.2 24 7.8 20.6667C9.12 21.0667 10.56 21.3333 12 21.3333C18.6 21.3333 24 16.5333 24 10.6667C24 4.8 18.6 0 12 0ZM13.2 16H10.8V13.3333H13.2V16ZM15.36 9.33333C15 9.86667 14.52 10.1333 14.04 10.4C13.68 10.6667 13.56 10.8 13.44 11.0667C13.2 11.3333 13.2 11.6 13.2 12H10.8C10.8 11.3333 10.92 10.9333 11.16 10.5333C11.4 10.2667 11.88 9.86667 12.48 9.46667C12.84 9.33333 13.08 9.06667 13.2 8.8C13.32 8.53333 13.44 8.13333 13.44 7.86667C13.44 7.46667 13.32 7.2 13.08 6.93333C12.84 6.66667 12.48 6.53333 12.12 6.53333C11.76 6.53333 11.52 6.66667 11.28 6.8C11.04 6.93333 10.92 7.2 10.92 7.6H8.52C8.64 6.66667 9 5.86667 9.6 5.33333C10.2 4.8 11.04 4.66667 12.12 4.66667C13.2 4.66667 14.16 4.93333 14.76 5.46667C15.36 6 15.72 6.8 15.72 7.73333C15.84 8.26667 15.72 8.8 15.36 9.33333Z" fill="#F59D02"/>
</svg>
