<svg width="14" height="14" viewBox="0 0 14 14" fill="none" xmlns="http://www.w3.org/2000/svg">
<path fill-rule="evenodd" clip-rule="evenodd" d="M6.99967 0.333008C3.31967 0.333008 0.333008 3.31967 0.333008 6.99967C0.333008 10.6797 3.31967 13.6663 6.99967 13.6663C10.6797 13.6663 13.6663 10.6797 13.6663 6.99967C13.6663 3.31967 10.6797 0.333008 6.99967 0.333008ZM5.71967 6.23975C5.75301 6.01975 5.82634 5.82641 5.91967 5.65975C6.01301 5.49308 6.14634 5.35308 6.31301 5.24641C6.47301 5.14641 6.67301 5.09975 6.91967 5.09308C7.07301 5.09975 7.21301 5.12641 7.33967 5.17975C7.47301 5.23975 7.59301 5.31975 7.68634 5.41975C7.77967 5.51975 7.85301 5.63975 7.91301 5.77308C7.97301 5.90641 7.99967 6.05308 8.00634 6.19975H9.19967C9.18634 5.88641 9.12634 5.59975 9.01301 5.33975C8.89967 5.07975 8.74634 4.85308 8.54634 4.66641C8.34634 4.47975 8.10634 4.33308 7.82634 4.22641C7.54634 4.11975 7.23967 4.07308 6.89967 4.07308C6.46634 4.07308 6.08634 4.14641 5.76634 4.29975C5.44634 4.45308 5.17967 4.65308 4.96634 4.91308C4.75301 5.17308 4.59301 5.47308 4.49301 5.81975C4.39301 6.16641 4.33301 6.52641 4.33301 6.91308V7.09308C4.33301 7.47975 4.38634 7.83975 4.48634 8.18641C4.58634 8.53308 4.74634 8.83308 4.95967 9.08641C5.17301 9.33975 5.43967 9.54641 5.75967 9.69308C6.07967 9.83975 6.45967 9.91975 6.89301 9.91975C7.20634 9.91975 7.49967 9.86641 7.77301 9.76641C8.04634 9.66641 8.28634 9.52641 8.49301 9.34641C8.69967 9.16641 8.86634 8.95975 8.98634 8.71975C9.10634 8.47974 9.17967 8.22641 9.18634 7.95308H7.99301C7.98634 8.09308 7.95301 8.21975 7.89301 8.33975C7.83301 8.45975 7.75301 8.55975 7.65301 8.64641C7.55301 8.73308 7.43967 8.79975 7.30634 8.84641C7.17967 8.89308 7.04634 8.90641 6.90634 8.91308C6.66634 8.90641 6.46634 8.85975 6.31301 8.75975C6.14634 8.65308 6.01301 8.51308 5.91967 8.34641C5.82634 8.17975 5.75301 7.97975 5.71967 7.75975C5.68634 7.53975 5.66634 7.31308 5.66634 7.09308V6.91308C5.66634 6.67975 5.68634 6.45975 5.71967 6.23975ZM1.66634 6.99967C1.66634 9.93967 4.05967 12.333 6.99967 12.333C9.93967 12.333 12.333 9.93967 12.333 6.99967C12.333 4.05967 9.93967 1.66634 6.99967 1.66634C4.05967 1.66634 1.66634 4.05967 1.66634 6.99967Z" fill="#E6E9ED"/>
</svg>
