<svg width="20" height="20" viewBox="0 0 20 20" fill="none" xmlns="http://www.w3.org/2000/svg">
<path fill-rule="evenodd" clip-rule="evenodd" d="M17.7127 10C17.7127 10.34 17.6818 10.66 17.6407 10.98L19.8099 12.63C20.0052 12.78 20.0566 13.05 19.9333 13.27L17.8772 16.73C17.7846 16.89 17.6099 16.98 17.4351 16.98C17.3734 16.98 17.3117 16.97 17.25 16.95L14.6902 15.95C14.1556 16.34 13.5799 16.68 12.9528 16.93L12.5621 19.58C12.5313 19.82 12.3154 20 12.0584 20H7.94616C7.68915 20 7.47326 19.82 7.44242 19.58L7.05176 16.93C6.42464 16.68 5.84894 16.35 5.31435 15.95L2.7545 16.95C2.70309 16.97 2.64141 16.98 2.57973 16.98C2.39468 16.98 2.21991 16.89 2.12738 16.73L0.0712766 13.27C-0.0520898 13.05 -0.000687145 12.78 0.194643 12.63L2.36384 10.98C2.32271 10.66 2.29187 10.33 2.29187 10C2.29187 9.67 2.32271 9.34 2.36384 9.02L0.194643 7.37C-0.000687145 7.22 -0.0623703 6.95 0.0712766 6.73L2.12738 3.27C2.21991 3.11 2.39468 3.02 2.56945 3.02C2.63113 3.02 2.69281 3.03 2.7545 3.05L5.31435 4.05C5.84894 3.66 6.42464 3.32 7.05176 3.07L7.44242 0.42C7.47326 0.18 7.68915 0 7.94616 0H12.0584C12.3154 0 12.5313 0.18 12.5621 0.42L12.9528 3.07C13.5799 3.32 14.1556 3.65 14.6902 4.05L17.25 3.05C17.3014 3.03 17.3631 3.02 17.4248 3.02C17.6099 3.02 17.7846 3.11 17.8772 3.27L19.9333 6.73C20.0566 6.95 20.0052 7.22 19.8099 7.37L17.6407 9.02C17.6818 9.34 17.7127 9.66 17.7127 10ZM5.89077 10C5.89077 7.79 7.73098 6 10.003 6C12.275 6 14.1152 7.79 14.1152 10C14.1152 12.21 12.275 14 10.003 14C7.73098 14 5.89077 12.21 5.89077 10Z" fill="white"/>
</svg>
