<svg width="20" height="20" viewBox="0 0 20 20" fill="none" xmlns="http://www.w3.org/2000/svg">
<mask id="path-1-inside-1_1557_603" fill="white">
<path fill-rule="evenodd" clip-rule="evenodd" d="M0 0.5C0 0.223858 0.223858 0 0.5 0H19.5C19.7761 0 20 0.223858 20 0.5V4.5C20 4.77614 19.7761 5 19.5 5H0.5C0.223857 5 0 4.77614 0 4.5V0.5ZM0 8C0 7.72386 0.223858 7.5 0.5 7.5H19.5C19.7761 7.5 20 7.72386 20 8V12C20 12.2761 19.7761 12.5 19.5 12.5H0.5C0.223857 12.5 0 12.2761 0 12V8ZM0.5 15C0.223858 15 0 15.2239 0 15.5V19.5C0 19.7761 0.223857 20 0.5 20H19.5C19.7761 20 20 19.7761 20 19.5V15.5C20 15.2239 19.7761 15 19.5 15H0.5Z"/>
</mask>
<path fill-rule="evenodd" clip-rule="evenodd" d="M0 0.5C0 0.223858 0.223858 0 0.5 0H19.5C19.7761 0 20 0.223858 20 0.5V4.5C20 4.77614 19.7761 5 19.5 5H0.5C0.223857 5 0 4.77614 0 4.5V0.5ZM0 8C0 7.72386 0.223858 7.5 0.5 7.5H19.5C19.7761 7.5 20 7.72386 20 8V12C20 12.2761 19.7761 12.5 19.5 12.5H0.5C0.223857 12.5 0 12.2761 0 12V8ZM0.5 15C0.223858 15 0 15.2239 0 15.5V19.5C0 19.7761 0.223857 20 0.5 20H19.5C19.7761 20 20 19.7761 20 19.5V15.5C20 15.2239 19.7761 15 19.5 15H0.5Z" fill="white"/>
<path d="M0.5 -1C-0.328427 -1 -1 -0.328427 -1 0.5H1C1 0.776142 0.776143 1 0.5 1V-1ZM19.5 -1H0.5V1H19.5V-1ZM21 0.5C21 -0.328427 20.3284 -1 19.5 -1V1C19.2239 1 19 0.776143 19 0.5H21ZM21 4.5V0.5H19V4.5H21ZM19.5 6C20.3284 6 21 5.32843 21 4.5H19C19 4.22386 19.2239 4 19.5 4V6ZM0.5 6H19.5V4H0.5V6ZM-1 4.5C-1 5.32843 -0.328429 6 0.5 6V4C0.776143 4 1 4.22386 1 4.5H-1ZM-1 0.5V4.5H1V0.5H-1ZM0.5 6.5C-0.328427 6.5 -1 7.17157 -1 8H1C1 8.27614 0.776143 8.5 0.5 8.5V6.5ZM19.5 6.5H0.5V8.5H19.5V6.5ZM21 8C21 7.17157 20.3284 6.5 19.5 6.5V8.5C19.2239 8.5 19 8.27614 19 8H21ZM21 12V8H19V12H21ZM19.5 13.5C20.3284 13.5 21 12.8284 21 12H19C19 11.7239 19.2239 11.5 19.5 11.5V13.5ZM0.5 13.5H19.5V11.5H0.5V13.5ZM-1 12C-1 12.8284 -0.328429 13.5 0.5 13.5V11.5C0.776143 11.5 1 11.7239 1 12H-1ZM-1 8V12H1V8H-1ZM1 15.5C1 15.7761 0.776143 16 0.5 16V14C-0.328427 14 -1 14.6716 -1 15.5H1ZM1 19.5V15.5H-1V19.5H1ZM0.5 19C0.776143 19 1 19.2239 1 19.5H-1C-1 20.3284 -0.328429 21 0.5 21V19ZM19.5 19H0.5V21H19.5V19ZM19 19.5C19 19.2239 19.2239 19 19.5 19V21C20.3284 21 21 20.3284 21 19.5H19ZM19 15.5V19.5H21V15.5H19ZM19.5 16C19.2239 16 19 15.7761 19 15.5H21C21 14.6716 20.3284 14 19.5 14V16ZM0.5 16H19.5V14H0.5V16Z" fill="#E6E9ED" mask="url(#path-1-inside-1_1557_603)"/>
</svg>
