<svg xmlns="http://www.w3.org/2000/svg" xmlns:xlink="http://www.w3.org/1999/xlink" viewBox="0 0 1113.05 131.12"><defs><linearGradient id="linear-gradient" x1="-2.29" y1="-355.84" x2="127.78" y2="-390.83" gradientTransform="matrix(0.99, 0.14, 0.14, -1.01, 68.8, -338.26)" gradientUnits="userSpaceOnUse"><stop offset="0.06" stop-color="#130231"/><stop offset="0.08" stop-color="#12123b"/><stop offset="0.2" stop-color="#0b5d67"/><stop offset="0.31" stop-color="#07998b"/><stop offset="0.4" stop-color="#03c4a4"/><stop offset="0.47" stop-color="#01deb4"/><stop offset="0.51" stop-color="#00e8ba"/><stop offset="0.59" stop-color="#04c6a6"/><stop offset="0.75" stop-color="#0e7173"/><stop offset="0.9" stop-color="#172445"/></linearGradient><linearGradient id="linear-gradient-2" x1="12.32" y1="80.29" x2="89.57" y2="49.54" gradientTransform="matrix(1, 0, 0, -1, 0, 134.2)" gradientUnits="userSpaceOnUse"><stop offset="0.24" stop-color="#16dea5"/><stop offset="0.39" stop-color="#0ce9c6"/><stop offset="0.58" stop-color="#00f6ee"/></linearGradient><linearGradient id="linear-gradient-3" x1="221.1" y1="-5.08" x2="80.97" y2="105.74" gradientTransform="matrix(1, 0, 0, -1, 0, 134.2)" gradientUnits="userSpaceOnUse"><stop offset="0.39" stop-color="#00f6ee"/><stop offset="0.47" stop-color="#07efd8"/><stop offset="0.67" stop-color="#16dea5"/><stop offset="0.7" stop-color="#16d19e"/><stop offset="0.77" stop-color="#15ad8b"/><stop offset="0.85" stop-color="#15736d"/><stop offset="0.96" stop-color="#132543"/><stop offset="1" stop-color="#130231"/></linearGradient><linearGradient id="linear-gradient-4" x1="81.24" y1="89.71" x2="124.44" y2="72.83" gradientTransform="matrix(1, 0, 0, -1, 0, 134.2)" gradientUnits="userSpaceOnUse"><stop offset="0.21" stop-color="#16dea5"/><stop offset="0.37" stop-color="#11e3b5"/><stop offset="0.67" stop-color="#05f0dd"/><stop offset="0.78" stop-color="#00f6ee"/></linearGradient><linearGradient id="linear-gradient-5" x1="70.7" y1="51.29" x2="72.78" y2="50.49" xlink:href="#linear-gradient-2"/></defs><g id="Layer_2" data-name="Layer 2"><g id="Layer_1-2" data-name="Layer 1"><path d="M64.84,87.62c3.2,7.35,6-1,6-1l4.41-11.83,18-48.34L86.49,3.17c-.39-1-2.33,1-2.48,1.17A19.68,19.68,0,0,0,81.57,9.5c-1.68,4.29-3,8.69-4.49,13q-2.31,6.91-4.57,13.82Q68,50.15,63.43,64l-.24.73-2.13,6.43,2.69,12.23S64.79,87.56,64.84,87.62Z" fill="url(#linear-gradient)"/><path d="M45.6,119.47c-2,5.9-7.81,11.4-14,11.44L0,131.12,39.81,10.39C41.43,5.47,46.35,0,51.89,0H82.3a4.24,4.24,0,0,1,4.07,2.85l.16.39a.23.23,0,0,0-.07-.07c-.54-.31-1.74.94-2.09,1.35l-.1.11a19.68,19.68,0,0,0-2.44,5.16c-1.67,4.29-3,8.68-4.49,13Q75,29.69,72.77,36.6c-3,9.22-6,18.45-9.07,27.66l-.24.73-2.13,6.43Z" fill="url(#linear-gradient-2)"/><path d="M148.88,126.41a20.7,20.7,0,0,1-12.59,4.69l-24-.1c.88-5.38,1.19-28.51,2.91-47.26L123,62.16c.08-.22.18-.46.27-.7,3.15-8.82,6.26-17.68,9.39-26.53,1.58-4.42,3.15-8.84,4.75-13.24,1.49-4.2,2.9-8.39,4.64-12.51a34.61,34.61,0,0,1,1.72-3.77c.1-.17.21-.33.32-.5a2.35,2.35,0,0,1,.23-.32,2.09,2.09,0,0,1,.23-.29c.16-.19,2.22-2.18,2.67-1.18a9.33,9.33,0,0,0,.14,1.17v.33a.66.66,0,0,0,.05.32c0,.1,0,.25,0,.37a2.29,2.29,0,0,1,0,.37V6.5a1.27,1.27,0,0,0,0,.43,1.54,1.54,0,0,1,0,.48,1.85,1.85,0,0,1,0,.47,1.77,1.77,0,0,0,.05.51,4.34,4.34,0,0,0,0,.51v3a1.41,1.41,0,0,0,0,.29L151.62,109C152.07,114.57,153.37,122.59,148.88,126.41Z" fill="url(#linear-gradient-3)"/><path d="M147.22,3.1c-.43-1-2.45.95-2.62,1.13l-.06.09a2.09,2.09,0,0,0-.23.29,2.35,2.35,0,0,0-.23.32c-.11.17-.22.33-.32.5A34.61,34.61,0,0,0,142,9.2c-1.74,4.12-3.15,8.31-4.64,12.51-1.6,4.4-3.17,8.82-4.75,13.24-3.13,8.85-6.24,17.71-9.39,26.53-.09.24-.19.48-.27.7l-7.84,21.58-1.51,4.16-5,13.82a21.61,21.61,0,0,1-10.91,12.2c-5.84,2.74-12.36,1.94-18-1.1a22.83,22.83,0,0,1-2.26-1.39.59.59,0,0,1-.43-.14,13.18,13.18,0,0,1-1.27-1.21A20.29,20.29,0,0,1,70.43,103c-.18-.29-.3-.47-.32-.53-.21-.26-4.89-13.77-5.48-15.45.11.25.2.57.32.78s.17.34.26.5.24.41.37.61.26.35.39.5a1.8,1.8,0,0,0,.19.2,2,2,0,0,0,1.41.7,1.93,1.93,0,0,0,.34,0,1,1,0,0,0,.29-.1c1.53-.63,2.59-3.34,2.59-3.34l3.93-10.55.24-.61.41-1.11,17.92-48L99.58,9.7a14.13,14.13,0,0,1,4.5-6.25A16.52,16.52,0,0,1,114.41.06h28.08c1.25,0,2.42-.07,3.26.62a3.39,3.39,0,0,1,1.06,1.42Z" fill="url(#linear-gradient-4)"/><path d="M74.72,76.26,70.79,86.81s-1.06,2.71-2.59,3.34c1.42-.63,2.36-3.14,2.36-3.14Z" fill="url(#linear-gradient-5)"/><path d="M295.93,80.66c0-13.73-5.8-20.5-15.08-20.5S265,67.7,265,79.89v45a2.59,2.59,0,0,1-2.59,2.59H247.58V78.73c0-13.54-6.38-18.57-15.47-18.57-8.51,0-15.47,5.42-15.47,19.73v45a2.59,2.59,0,0,1-2.59,2.59H199.43V50.1a3.45,3.45,0,0,1,3.44-3.45h13.62v9.09c5.18-8.15,12.72-10.64,20.26-10.64,9.29,0,17,4.06,22.44,13.34A26.79,26.79,0,0,1,282.78,45.1c17,0,30.75,10,30.75,34.81V125a2.52,2.52,0,0,1-2.52,2.52H295.93Z" fill="#fff"/><path d="M1095.49,80.66c0-13.73-5.8-20.5-15.08-20.5s-15.92,7.54-15.92,19.73v44.67a2.9,2.9,0,0,1-2.9,2.9h-14.51V78.73c0-13.54-6.38-18.57-15.47-18.57-8.51,0-15.47,5.42-15.47,19.73v44.66a2.91,2.91,0,0,1-2.91,2.91h-14.3V50.38a3.76,3.76,0,0,1,3.76-3.76H1016v9.09c5.22-8.12,12.76-10.63,20.3-10.63,9.29,0,17,4.06,22.44,13.34A26.84,26.84,0,0,1,1082.3,45.1c17,0,30.75,10,30.75,34.81v44.73a2.84,2.84,0,0,1-2.84,2.84h-14.72Z" fill="#fff"/><path d="M370.23,113.73A30.34,30.34,0,0,0,391.12,106l8.9,13.15c-10.45,7.35-18.76,9.67-29.79,9.67-26.68,0-42.54-16.24-42.54-41.77,0-25.14,16.63-41.77,38.67-41.77,20.31,0,36.36,13.73,36.36,37.32,0,3.68-.38,8.13-.38,8.13H345.09C345.09,106,356.31,113.73,370.23,113.73ZM346.06,77h40.61c-1.16-11.61-9.67-17.41-19.92-17.41-9.47,0-17.6,5.8-20.69,17.41Z" fill="#fff"/><path d="M447.82,128.43c-20.11,0-26.88-9.48-26.88-31.33v-36H406.83l3.86-14.51h10.25V35.7a6.6,6.6,0,0,1,5.2-6.46l12.4-2.73V46.62h20.11V61.1H438.54V97.45c0,15.09,3.68,17.41,21.66,16.06l-3.48,14.89Z" fill="#fff"/><path d="M747.64,128.43c-20.12,0-26.88-9.48-26.88-31.33v-36H706.64l3.85-14.48h10.25V35.7a6.59,6.59,0,0,1,5.19-6.46l12.4-2.73V46.62h20.16V61.1H738.35V97.45c0,15.09,3.68,17.41,21.66,16.06l-3.52,14.92Z" fill="#fff"/><path d="M492.11,92.46v35h-17.4V49.88A3.26,3.26,0,0,1,478,46.62h14.16V58.81c2.71-8.51,11.41-13.54,20.5-13.54a37.82,37.82,0,0,1,4.64.19c-1.16,5.61-1.54,10.06-2.9,15.67H513C494.63,61.1,492.11,75.44,492.11,92.46Z" fill="#fff"/><path d="M794.85,92.46v35H777.49V49.88a3.26,3.26,0,0,1,3.25-3.26H794.9V58.81c2.7-8.51,11.41-13.54,20.5-13.54a37.82,37.82,0,0,1,4.64.19c-1.21,5.64-1.55,10.06-2.95,15.64h-1.36C797.36,61.1,794.85,75.44,794.85,92.46Z" fill="#fff"/><path d="M539.3,31.73c-5.8,0-10.45-3.67-10.45-9.86,0-6,4.65-9.48,10.45-9.48,6,0,10.63,3.48,10.63,9.67S545.29,31.73,539.3,31.73Zm-8.71,14.89h17.6v80.84h-17.6Z" fill="#fff"/><path d="M561.42,87c0-26.3,18-42,42.55-42a51.19,51.19,0,0,1,27.66,8.51L628,69.1s-10.25-8.51-23.79-8.51c-14.31,0-25.52,9.28-25.52,26.3s10.83,26.88,25.33,26.88a36.1,36.1,0,0,0,22.43-8.32l7.93,14.12c-10.63,6.77-20.5,9.28-30.36,9.28C579.41,128.81,561.42,113,561.42,87Z" fill="#fff"/><path d="M673.4,60.16c-5.23,0-11,2.13-11,7.93,0,15.08,40.42,7.73,40.42,36,0,15.08-11.79,24.56-30.36,24.56-8.51,0-18.37-1.55-30.36-9.28,3.09-4.26,8.89-12.57,8.89-12.57,6.39,4.25,14.51,7,20.89,7,8.7,0,13-3.87,13-9.28,0-16.44-39.45-7.74-39.45-36.55,0-14.31,11.6-22.82,28-22.82a42.74,42.74,0,0,1,24.75,7.93l-2.93,15C686.74,62.1,679.59,60.16,673.4,60.16Z" fill="#fff"/><path d="M867.17,113.73A30.34,30.34,0,0,0,888.06,106l8.9,13.15c-10.45,7.35-18.76,9.67-29.79,9.67-26.68,0-42.54-16.24-42.54-41.77,0-25.14,16.63-41.77,38.67-41.77,20.31,0,36.36,13.73,36.36,37.32,0,3.68-.38,8.13-.38,8.13H842C842,106,853.25,113.73,867.17,113.73ZM843,77h40.61c-1.16-11.61-9.67-17.41-19.92-17.41C854.22,59.58,846.09,65.38,843,77Z" fill="#fff"/><path d="M948.49,45.46c8.77,0,18.45,1.59,26.2,6.19,9.87,5.85,11.7,14.6,11.7,25.36v50.45H969.18V115.52a.36.36,0,0,0-.34-.38.37.37,0,0,0-.35.22c-3.45,7.73-12.93,13.07-24.06,13.07-24.37,0-37.13-17.8-37.13-41.2C907.29,64,922,45.46,948.49,45.46ZM946.36,113c13.93,0,22.82-12.37,22.82-32.68V74c0-11-11.19-13.3-19.92-13.3-16,0-24.17,12.57-24.17,27.08,0,14.28,6.18,25.13,21.26,25.13Z" fill="#fff"/></g></g></svg>