<svg
        width="20"
        height="20"
        viewBox="0 0 20 20"
        fill="none"
        xmlns="http://www.w3.org/2000/svg"
      >
        <path
          d="M1.62162 8C0.724324 8 0 8.89333 0 10C0 11.1067 0.724324 12 1.62162 12C2.51892 12 3.24324 11.1067 3.24324 10C3.24324 8.89333 2.51892 8 1.62162 8ZM1.62162 0C0.724324 0 0 0.893333 0 2C0 3.10667 0.724324 4 1.62162 4C2.51892 4 3.24324 3.10667 3.24324 2C3.24324 0.893333 2.51892 0 1.62162 0ZM1.62162 16C0.724324 16 0 16.9067 0 18C0 19.0933 0.735135 20 1.62162 20C2.50811 20 3.24324 19.0933 3.24324 18C3.24324 16.9067 2.51892 16 1.62162 16ZM5.94595 19.3333H18.9189C19.5135 19.3333 20 18.7333 20 18C20 17.2667 19.5135 16.6667 18.9189 16.6667H5.94595C5.35135 16.6667 4.86486 17.2667 4.86486 18C4.86486 18.7333 5.35135 19.3333 5.94595 19.3333ZM5.94595 11.3333H18.9189C19.5135 11.3333 20 10.7333 20 10C20 9.26667 19.5135 8.66667 18.9189 8.66667H5.94595C5.35135 8.66667 4.86486 9.26667 4.86486 10C4.86486 10.7333 5.35135 11.3333 5.94595 11.3333ZM4.86486 2C4.86486 2.73333 5.35135 3.33333 5.94595 3.33333H18.9189C19.5135 3.33333 20 2.73333 20 2C20 1.26667 19.5135 0.666667 18.9189 0.666667H5.94595C5.35135 0.666667 4.86486 1.26667 4.86486 2Z"
          fill="#F3F5F8"
        />
      </svg>