<svg width="48" height="48" viewBox="0 0 29 24" fill="none" xmlns="http://www.w3.org/2000/svg">
    <g clip-path="url(#clip0_1_64366)">
        <path d="M12.5257 15.9277C13.0936 17.2358 13.5934 15.7576 13.5934 15.7576L14.3794 13.6529L17.5892 5.04751L16.3856 0.89558C16.3152 0.712562 15.9702 1.07039 15.9433 1.10441C15.7344 1.3719 15.6312 1.7086 15.5092 2.02302C15.2112 2.78677 14.9683 3.56811 14.7102 4.34359C14.4373 5.16248 14.1659 5.98372 13.896 6.8073C13.3572 8.44977 12.819 10.0922 12.2817 11.7347C12.2665 11.7781 12.2524 11.8215 12.2383 11.8649L11.8594 13.0088L12.338 15.1851C12.338 15.1851 12.5152 15.916 12.5257 15.9277Z" fill="url(#paint0_linear_1_64366)"/>
        <path d="M9.10247 21.5962C8.75051 22.6521 7.71224 23.6259 6.60475 23.6329L0.980469 23.6693L8.07124 2.18108C8.35984 1.3047 9.23504 0.332128 10.2217 0.332128H15.6348C15.7935 0.329585 15.9489 0.377218 16.0789 0.468231C16.2089 0.559244 16.3068 0.688986 16.3587 0.838947L16.3868 0.908166L16.3751 0.896434C16.2789 0.841294 16.0654 1.06303 16.0032 1.13107C15.9938 1.14046 15.9891 1.1475 15.9856 1.15102C15.7768 1.4185 15.6735 1.75404 15.5503 2.06963C15.2535 2.83337 15.0118 3.61472 14.7514 4.3902C14.4792 5.21144 14.2102 6.03228 13.9442 6.85273C13.4046 8.4952 12.8708 10.1377 12.3299 11.7801C12.3158 11.8247 12.3006 11.867 12.2865 11.9104L11.9076 13.0542L9.10247 21.5962Z" fill="url(#paint1_linear_1_64366)"/>
        <path d="M27.4847 22.8335C26.8524 23.3559 26.0637 23.652 25.2439 23.6747L20.9629 23.6571C21.1189 22.6998 21.1752 18.583 21.4803 15.2453L22.8764 11.4043C22.8904 11.3656 22.908 11.3222 22.9245 11.2799C23.4852 9.7102 24.0421 8.13616 24.5951 6.55783C24.8767 5.77061 25.1559 4.98458 25.441 4.20088C25.7061 3.45356 25.9572 2.70741 26.2622 1.97182C26.3507 1.7422 26.453 1.51811 26.5684 1.30075C26.586 1.27142 26.6059 1.24209 26.6259 1.21276C26.6374 1.19244 26.6508 1.17319 26.6658 1.15528C26.6784 1.13728 26.6921 1.12005 26.7068 1.10366C26.7362 1.06963 27.1022 0.715328 27.182 0.893654C27.1902 0.962872 27.1984 1.03209 27.2078 1.10248C27.2078 1.12008 27.2078 1.13768 27.2148 1.16114C27.2219 1.18461 27.2148 1.19986 27.223 1.21745C27.2312 1.23505 27.223 1.26204 27.223 1.28315C27.2277 1.3048 27.2308 1.32676 27.2324 1.34885C27.2324 1.37584 27.2324 1.39695 27.2395 1.41924C27.2465 1.44153 27.2453 1.47086 27.2453 1.4955C27.2453 1.52014 27.2453 1.54712 27.2535 1.57176C27.2617 1.5964 27.2535 1.6269 27.2535 1.6574C27.2585 1.68487 27.2605 1.7128 27.2594 1.7407C27.2594 1.76886 27.2594 1.80288 27.2676 1.83221C27.2659 1.86229 27.2659 1.89246 27.2676 1.92254C27.2676 1.95657 27.2735 1.98824 27.2735 2.02226C27.2735 2.05629 27.2735 2.09148 27.2735 2.12316C27.2735 2.15484 27.2735 2.19707 27.2735 2.22992C27.2735 2.26277 27.2735 2.30383 27.2735 2.34724V2.46456C27.2716 2.48171 27.2716 2.49902 27.2735 2.51618L28.0067 19.7386C28.0525 20.7265 28.2836 22.1531 27.4847 22.8335Z" fill="url(#paint2_linear_1_64366)"/>
        <path d="M27.1896 0.886552C27.1133 0.710573 26.7531 1.05549 26.7203 1.08717C26.7163 1.09237 26.7128 1.09786 26.7097 1.10359C26.695 1.11999 26.6813 1.13722 26.6687 1.15521C26.6537 1.17313 26.6403 1.19237 26.6288 1.2127C26.6088 1.24203 26.5889 1.27136 26.5713 1.30069C26.4551 1.51799 26.352 1.74209 26.2627 1.97175C25.953 2.705 25.7019 3.45115 25.4415 4.20082C25.1564 4.98451 24.8772 5.77055 24.5956 6.55776C24.0395 8.13375 23.4827 9.70779 22.925 11.2799C22.9086 11.3221 22.891 11.3655 22.8769 11.4042L21.4808 15.2417L21.218 15.9832L20.3217 18.4469C19.9844 19.3974 19.2871 20.1773 18.3801 20.6185C17.3394 21.1065 16.178 20.9646 15.1819 20.4237C15.0436 20.3485 14.9096 20.2655 14.7807 20.175C14.767 20.177 14.7529 20.1759 14.7397 20.1716C14.7265 20.1673 14.7144 20.1601 14.7044 20.1504C14.6218 20.0842 14.5442 20.0121 14.4721 19.9345C14.0649 19.5869 13.7402 19.1528 13.5219 18.6639C13.501 18.6337 13.4818 18.6024 13.4644 18.5701C13.4268 18.5232 12.5927 16.1193 12.4883 15.8201C12.5071 15.8647 12.5247 15.921 12.5458 15.9586C12.5669 15.9961 12.5763 16.0196 12.5927 16.0477C12.6091 16.0759 12.6373 16.124 12.6584 16.1568C12.6795 16.1897 12.7041 16.219 12.7276 16.2448C12.7378 16.258 12.7491 16.2702 12.7616 16.2812C12.7927 16.318 12.8311 16.348 12.8743 16.3694C12.9174 16.3908 12.9646 16.4031 13.0127 16.4055C13.0328 16.4054 13.0529 16.4031 13.0725 16.3985C13.0905 16.3953 13.1079 16.3894 13.1242 16.3809C13.3975 16.2636 13.5852 15.7861 13.5852 15.7861L14.2891 13.909L14.3314 13.8011L14.4041 13.6028L17.594 5.05256L18.7132 2.05153C18.8721 1.61371 19.1495 1.22866 19.5145 0.939346C20.0096 0.535767 20.6596 0.352749 21.3529 0.336325H26.3472C26.5701 0.336325 26.7778 0.323419 26.9279 0.446605C27.011 0.511654 27.076 0.596871 27.1168 0.694148L27.1896 0.886552Z" fill="url(#paint3_linear_1_64366)"/>
        <path d="M14.2861 13.9062L13.5822 15.7834C13.5822 15.7834 13.3944 16.2655 13.1211 16.3782C13.3745 16.2608 13.5423 15.8186 13.5423 15.8186L14.2861 13.9062Z" fill="url(#paint4_linear_1_64366)"/>
    </g>
    <defs>
        <linearGradient id="paint0_linear_1_64366" x1="3.85531" y1="4.19833" x2="26.0144" y2="13.4592" gradientUnits="userSpaceOnUse">
            <stop offset="0.06" stop-color="#130231"/>
            <stop offset="0.08" stop-color="#12123B"/>
            <stop offset="0.2" stop-color="#0B5D67"/>
            <stop offset="0.31" stop-color="#07998B"/>
            <stop offset="0.4" stop-color="#03C4A4"/>
            <stop offset="0.47" stop-color="#01DEB4"/>
            <stop offset="0.51" stop-color="#00E8BA"/>
            <stop offset="0.59" stop-color="#04C6A6"/>
            <stop offset="0.75" stop-color="#0E7173"/>
            <stop offset="0.9" stop-color="#172445"/>
        </linearGradient>
        <linearGradient id="paint1_linear_1_64366" x1="3.17786" y1="9.92884" x2="16.9277" y2="15.4006" gradientUnits="userSpaceOnUse">
            <stop offset="0.24" stop-color="#16DEA5"/>
            <stop offset="0.39" stop-color="#0CE9C6"/>
            <stop offset="0.58" stop-color="#00F6EE"/>
        </linearGradient>
        <linearGradient id="paint2_linear_1_64366" x1="40.3334" y1="25.1283" x2="15.3914" y2="5.40346" gradientUnits="userSpaceOnUse">
            <stop offset="0.39" stop-color="#00F6EE"/>
            <stop offset="0.47" stop-color="#07EFD8"/>
            <stop offset="0.67" stop-color="#16DEA5"/>
            <stop offset="0.7" stop-color="#16D19E"/>
            <stop offset="0.77" stop-color="#15AD8B"/>
            <stop offset="0.85" stop-color="#15736D"/>
            <stop offset="0.96" stop-color="#132543"/>
            <stop offset="1" stop-color="#130231"/>
        </linearGradient>
        <linearGradient id="paint3_linear_1_64366" x1="15.4459" y1="8.24833" x2="23.1373" y2="11.2541" gradientUnits="userSpaceOnUse">
            <stop offset="0.21" stop-color="#16DEA5"/>
            <stop offset="0.37" stop-color="#11E3B5"/>
            <stop offset="0.67" stop-color="#05F0DD"/>
            <stop offset="0.78" stop-color="#00F6EE"/>
        </linearGradient>
        <linearGradient id="paint4_linear_1_64366" x1="207.451" y1="416.087" x2="211.529" y2="416.825" gradientUnits="userSpaceOnUse">
            <stop offset="0.24" stop-color="#16DEA5"/>
            <stop offset="0.39" stop-color="#0CE9C6"/>
            <stop offset="0.58" stop-color="#00F6EE"/>
        </linearGradient>
        <clipPath id="clip0_1_64366">
            <rect width="29" height="24" fill="white"/>
        </clipPath>
    </defs>
</svg>
