<svg width="20" height="20" viewBox="0 0 20 20" fill="none" xmlns="http://www.w3.org/2000/svg">
<path d="M20 16.1905V17.1429H0V16.1905L2.22222 14.2857V8.57143C2.22222 5.61905 4.47778 3.01905 7.77778 2.18095V1.90476C7.77778 1.39959 8.01191 0.915104 8.42865 0.557892C8.8454 0.20068 9.41063 0 10 0C10.5894 0 11.1546 0.20068 11.5713 0.557892C11.9881 0.915104 12.2222 1.39959 12.2222 1.90476V2.18095C15.5222 3.01905 17.7778 5.61905 17.7778 8.57143V14.2857L20 16.1905ZM12.2222 18.0952C12.2222 18.6004 11.9881 19.0849 11.5713 19.4421C11.1546 19.7993 10.5894 20 10 20C9.41063 20 8.8454 19.7993 8.42865 19.4421C8.01191 19.0849 7.77778 18.6004 7.77778 18.0952" fill="white"/>
</svg>
