<svg xmlns="http://www.w3.org/2000/svg" width="20" height="20" viewBox="0 0 20 20" fill="none">
  <path fill-rule="evenodd" clip-rule="evenodd" d="M12.4712 11.8796H13.1296L17.2879 16.0462L16.0462 17.2879L11.8796 13.1296V12.4712L11.6546 12.2379C10.7046 13.0546 9.47122 13.5462 8.12956 13.5462C5.13789 13.5462 2.71289 11.1212 2.71289 8.12956C2.71289 5.13789 5.13789 2.71289 8.12956 2.71289C11.1212 2.71289 13.5462 5.13789 13.5462 8.12956C13.5462 9.47122 13.0546 10.7046 12.2379 11.6546L12.4712 11.8796ZM4.37956 8.12956C4.37956 10.2046 6.05456 11.8796 8.12956 11.8796C10.2046 11.8796 11.8796 10.2046 11.8796 8.12956C11.8796 6.05456 10.2046 4.37956 8.12956 4.37956C6.05456 4.37956 4.37956 6.05456 4.37956 8.12956Z" fill="#706982"/>
</svg>