<svg version="1.1" id="Layer_1" xmlns="http://www.w3.org/2000/svg" xmlns:xlink="http://www.w3.org/1999/xlink" x="0px" y="0px"
     width="100%" viewBox="0 0 1200 412" enable-background="new 0 0 1200 412" xml:space="preserve">
<path fill="#ffffff" opacity="1.000000" stroke="none"
      d="
M1081.277588,412.721466
	C1035.645752,413.000000 990.291565,413.000000 944.468628,413.000000
	C942.448303,410.991302 943.069031,409.632690 945.302917,408.838623
	C946.557129,408.392731 947.867310,408.115173 949.150208,407.754181
	C972.296570,401.242035 987.545288,382.150848 988.379883,358.023987
	C988.840515,344.707520 988.591370,331.368256 988.432922,318.041199
	C988.356140,311.585999 986.422607,309.596100 979.990051,309.569092
	C947.001953,309.430695 914.013062,309.429382 881.024963,309.569366
	C874.218689,309.598236 872.506592,311.847687 872.514648,319.541473
	C872.522644,327.174591 874.255859,329.390228 881.110229,329.434052
	C907.100586,329.600250 933.091980,329.472443 959.083008,329.507935
	C969.385010,329.522003 969.548462,329.608185 969.462646,339.701477
	C969.404663,346.519958 970.062195,353.367554 968.940308,360.155304
	C965.946838,378.265015 952.924438,389.589874 934.666626,390.505035
	C912.364868,391.622894 890.049133,391.805542 867.744995,391.347717
	C858.797302,391.164062 849.748596,391.143341 840.866943,389.723969
	C822.593384,386.803772 811.541687,373.641815 811.512878,355.043945
	C811.476501,331.552032 811.465088,308.060028 811.516235,284.568176
	C811.560608,264.168335 826.048035,250.256638 846.491943,249.361389
	C868.141968,248.413345 889.779053,248.769135 911.420349,248.452454
	C920.269104,248.322983 929.047302,249.292587 937.848572,249.735733
	C952.601685,250.478531 964.715027,261.334503 968.324402,275.911926
	C970.242065,283.656891 977.648438,287.136719 984.783997,283.646088
	C987.920837,282.111603 988.083374,279.368286 987.776123,276.397247
	C986.486389,263.923645 981.092712,253.329178 972.146606,244.804352
	C963.464478,236.531097 952.856323,231.626160 940.813416,230.728119
	C922.391296,229.354385 903.903015,228.178116 885.456055,228.702179
	C870.004211,229.141159 854.503601,229.177780 839.079346,230.673340
	C813.200684,233.182617 792.805725,255.021957 792.555908,281.029449
	C792.319214,305.685669 792.494934,330.345398 792.501343,355.003571
	C792.508423,382.253754 807.101440,401.263519 833.332703,408.317902
	C835.365356,408.864532 838.478027,408.533905 837.272888,412.657898
	C790.312439,413.000000 743.624878,413.000000 696.468628,413.000000
	C693.864563,411.454193 693.537231,409.208588 693.534424,406.797577
	C693.486206,365.833466 693.139160,324.865112 693.687134,283.907104
	C693.964661,263.162445 708.555115,249.978546 730.096436,249.550201
	C740.417786,249.344955 750.745056,249.578247 761.068726,249.476593
	C770.165710,249.387039 773.850525,243.985733 770.940552,235.246796
	C769.969788,232.331497 767.821167,230.766602 764.965576,230.766830
	C748.342773,230.768158 731.597412,228.823669 715.137512,232.010269
	C691.533386,236.579987 674.738708,258.077911 674.554688,283.500763
	C674.340149,313.140320 674.508484,342.782166 674.497559,372.423035
	C674.493530,383.413452 674.547180,394.404114 674.459656,405.394104
	C674.440308,407.830200 674.888611,410.471191 672.319031,412.679749
	C645.979126,413.000000 619.958191,413.000000 593.468628,413.000000
	C591.447327,410.989960 592.057312,409.591522 594.307312,408.847198
	C596.361816,408.167511 598.487122,407.707031 600.558838,407.074615
	C620.157104,401.091736 634.872131,383.226868 636.904419,362.965485
	C637.482727,357.200287 635.599854,354.974823 629.803772,354.572510
	C621.385864,353.988251 619.213867,355.602692 617.364685,363.818848
	C613.966370,378.917877 600.419312,389.614410 583.943054,390.479614
	C561.304443,391.668427 538.643555,391.872009 516.002014,391.317841
	C507.225159,391.102966 498.341278,391.147766 489.613251,389.709930
	C471.873718,386.787506 460.564819,373.598389 460.519836,355.773560
	C460.459717,331.940796 460.457886,308.107727 460.519531,284.274994
	C460.570862,264.428894 475.059967,250.283340 494.804230,249.388062
	C515.958557,248.428802 537.104126,248.755997 558.252380,248.433197
	C567.774414,248.287857 577.226013,249.210098 586.689575,249.717331
	C604.799622,250.688019 617.909302,265.484314 618.452026,284.680939
	C618.616882,290.510681 618.561279,296.347626 618.460449,302.179626
	C618.350342,308.549988 617.553345,309.417572 611.194336,309.452484
	C590.695068,309.565002 570.195312,309.481354 549.695740,309.498657
	C543.362549,309.503998 537.027954,309.408813 530.696533,309.533783
	C523.294312,309.679871 521.536682,311.625092 521.513550,319.375397
	C521.489929,327.277344 523.209412,329.419220 530.445068,329.445190
	C563.110718,329.562592 595.776978,329.552521 628.442688,329.451080
	C635.469727,329.429260 637.528809,327.483612 637.420776,320.475250
	C637.182251,304.997070 638.778625,289.449127 636.419739,274.050201
	C632.830078,250.616989 613.543152,232.591980 589.915100,230.736404
	C571.327454,229.276657 552.660095,228.163528 534.040527,228.705917
	C518.750488,229.151337 503.412872,229.197250 488.147644,230.661041
	C462.273956,233.142044 441.813568,254.984039 441.557495,280.984802
	C441.314606,305.648895 441.495239,330.316711 441.501312,354.982880
	C441.507996,382.254211 456.089203,401.254608 482.335785,408.318756
	C484.366699,408.865387 487.482147,408.534515 486.271942,412.658844
	C460.979095,413.000000 435.958221,413.000000 410.468658,413.000000
	C406.924103,410.742065 407.532288,407.390289 407.528687,404.297363
	C407.482971,365.320465 407.487366,326.343536 407.523956,287.366669
	C407.528961,282.006622 407.070129,276.733307 405.854767,271.510345
	C400.430664,248.200241 381.524933,232.383148 357.636505,230.470123
	C347.013184,229.619385 336.361267,229.162735 325.749146,228.800766
	C310.137299,228.268250 294.410614,228.901596 278.946869,231.213150
	C250.782700,235.423233 233.730270,256.737213 233.554153,287.471924
	C233.337494,325.281738 233.505905,363.093506 233.496613,400.904449
	C233.496078,403.069763 233.526169,405.235870 233.438156,407.399872
	C233.363251,409.241394 233.276505,411.090729 231.315674,412.683197
	C205.979111,413.000000 180.958206,413.000000 155.468658,413.000000
	C152.734543,409.139008 155.884399,408.885712 158.233719,408.316589
	C168.380844,405.858337 177.070892,400.892639 184.422058,393.492340
	C192.873367,384.984619 197.335571,374.599609 198.870834,362.866150
	C199.609161,357.223389 197.532593,354.849640 191.689407,354.592957
	C185.181168,354.307068 180.868134,354.512756 179.021179,363.663635
	C175.852112,379.364960 162.440308,389.610504 145.899384,390.482483
	C123.261009,391.675903 100.599861,391.886963 77.960754,391.307953
	C68.855721,391.075104 59.643990,391.131958 50.580654,389.573608
	C33.963474,386.716400 22.547731,373.271729 22.516077,356.343872
	C22.470575,332.011963 22.463415,307.679779 22.518084,283.347900
	C22.559223,265.037384 36.772755,250.558868 55.161289,249.499893
	C79.967468,248.071320 104.791031,248.355118 129.602448,248.676498
	C137.199646,248.774902 144.934860,248.878204 152.474518,250.376053
	C167.599670,253.380844 177.371017,264.007080 179.651077,279.187103
	C180.775269,286.671692 180.435730,294.147858 180.450958,301.632660
	C180.465271,308.668732 179.691223,309.429779 172.744537,309.462677
	C153.579178,309.553497 134.413406,309.482910 115.247810,309.499634
	C107.581642,309.506317 99.913330,309.373230 92.249908,309.553345
	C85.187393,309.719269 83.445465,311.874481 83.516357,319.839935
	C83.582893,327.315125 85.344139,329.418335 92.422066,329.444275
	C125.086586,329.563995 157.751648,329.549072 190.416245,329.453247
	C197.448135,329.432617 199.371887,327.494812 199.446838,320.498077
	C199.582535,307.833435 199.800064,295.158875 199.403824,282.502655
	C198.483200,253.096756 176.558807,231.730820 147.311630,230.327545
	C133.014908,229.641602 118.695694,229.038269 104.410141,228.722076
	C86.461800,228.324814 68.423416,228.958267 50.543747,230.775345
	C29.493597,232.914658 14.883723,244.330017 6.591084,263.873718
	C5.720360,265.925781 5.954659,269.815155 1.336415,268.280701
	C1.000000,202.979111 1.000000,137.958206 1.000000,72.468658
	C3.137896,69.870529 4.798681,70.970306 5.624520,73.106682
	C12.880667,91.877762 29.431910,99.630486 46.000755,107.382477
	C57.166473,112.606529 68.789619,116.810387 79.741043,122.515175
	C83.007797,124.216881 85.888535,126.409378 88.771217,128.708847
	C96.494339,134.869476 94.638641,149.990051 85.259850,154.713074
	C79.321472,157.703537 73.103508,159.160934 66.544319,159.483414
	C49.751575,160.309036 33.321873,158.088821 17.118544,153.743622
	C7.454143,151.151932 6.516383,151.969177 6.499987,162.102432
	C6.493247,166.268417 6.427929,170.435684 6.524488,174.600128
	C6.675139,181.097534 7.976185,182.748001 14.428729,184.076202
	C24.062143,186.059174 33.817734,187.391541 43.615688,188.023529
	C65.189011,189.415039 86.669441,189.260147 106.978416,180.324829
	C124.263824,172.719788 136.029190,160.377151 138.707520,141.016022
	C141.335190,122.020981 136.014908,106.058640 119.775970,94.703209
	C107.971779,86.448860 94.943489,80.482056 81.895973,74.538750
	C73.863861,70.880005 65.703285,67.451469 57.976360,63.184669
	C52.839115,60.347881 47.982815,56.947132 47.557747,50.157993
	C47.065964,42.303368 51.034550,36.362900 59.080956,33.472553
	C71.890663,28.871183 85.001762,29.935507 98.079430,31.887424
	C104.841080,32.896637 111.391380,34.887062 117.906105,36.985722
	C123.522736,38.795063 125.297417,37.482094 125.459305,31.613810
	C125.597145,26.617811 125.612595,21.613533 125.446564,16.618002
	C125.263321,11.104502 123.971550,9.641995 118.677223,8.360108
	C112.998955,6.985260 107.182938,6.420652 101.444435,5.400995
	C99.310196,5.021769 97.380959,4.507545 98.741928,1.305573
	C436.020905,1.000000 773.041809,1.000000 1110.531372,1.000000
	C1112.934448,3.307305 1111.836792,4.570320 1109.477783,5.372332
	C1106.166870,6.498080 1102.760620,7.308037 1099.444458,8.425912
	C1091.955811,10.950438 1085.073853,14.589773 1078.863892,19.477625
	C1056.560303,37.032848 1056.582520,78.922028 1082.856445,95.151184
	C1095.953857,103.241417 1109.951050,109.379356 1124.028564,115.425072
	C1131.057617,118.443779 1138.133423,121.372490 1144.569458,125.630356
	C1150.617310,129.631393 1154.163940,134.970627 1153.292725,142.348907
	C1152.442017,149.555359 1147.535278,153.869644 1141.218994,156.373352
	C1129.711548,160.934814 1117.617188,159.822983 1105.684448,159.044724
	C1095.198120,158.360794 1084.990356,155.805588 1074.816406,153.209778
	C1068.233887,151.530365 1066.621460,152.831619 1066.521240,159.546066
	C1066.441772,164.873062 1066.377930,170.205109 1066.554443,175.529587
	C1066.733398,180.923599 1068.067627,182.546036 1073.367554,183.823837
	C1083.593018,186.289093 1094.048462,187.489914 1104.488892,188.101791
	C1124.492310,189.274139 1144.469727,189.254562 1163.540649,181.553879
	C1178.152222,175.653870 1189.749878,166.538101 1195.952271,151.536453
	C1196.704590,149.716843 1197.206421,146.987747 1200.700439,148.737961
	C1201.000000,175.020889 1201.000000,201.041794 1201.000000,227.531342
	C1199.444092,230.078491 1197.238281,230.490494 1194.824463,230.489243
	C1190.325195,230.486908 1185.811890,230.718994 1181.330078,230.442825
	C1175.256592,230.068573 1171.013916,232.363205 1167.374634,237.323380
	C1152.689697,257.338135 1137.725586,277.149200 1122.757935,296.954193
	C1112.813721,310.112335 1102.673340,323.121490 1093.080078,336.542450
	C1086.349854,345.958160 1083.414429,356.508850 1083.480103,368.019226
	C1083.551392,380.517029 1083.527466,393.015686 1083.472534,405.513763
	C1083.461670,407.970184 1083.831909,410.588654 1081.277588,412.721466
z"/>
    <path fill="#ffffff" opacity="1.000000" stroke="none"
          d="
M386.341492,412.664734
	C342.979095,413.000000 299.958221,413.000000 256.468658,413.000000
	C253.210754,410.873108 253.529510,407.778717 253.523804,404.829193
	C253.478394,381.334625 253.505661,357.839966 253.502686,334.345337
	C253.500504,317.182587 253.971329,300.003174 253.371368,282.861816
	C252.783218,266.057129 268.416443,250.585068 285.467987,249.454971
	C303.282135,248.274323 321.093140,248.542786 338.909698,248.544479
	C345.565674,248.545105 352.276611,248.959442 358.812988,249.991333
	C377.621307,252.960632 388.335510,266.751343 388.447479,287.898773
	C388.619507,320.390625 388.491638,352.883728 388.496155,385.376312
	C388.497101,392.208008 388.547852,399.040039 388.459961,405.871307
	C388.430481,408.163239 388.604065,410.543579 386.341492,412.664734
z"/>
    <path fill="#641E8C" opacity="1.000000" stroke="none"
          d="
M1.000000,268.468658
	C3.971510,268.279114 3.343522,265.432678 3.751311,264.186768
	C10.600412,243.260239 32.433830,228.062500 54.340172,227.800247
	C72.395020,227.584091 90.445648,225.698669 108.528496,226.073685
	C123.599350,226.386246 138.754089,226.500458 153.697647,228.217300
	C176.968018,230.890808 196.706924,248.482788 201.082062,273.397003
	C201.837189,277.697083 201.985992,281.939301 201.992172,286.235718
	C202.012009,300.068329 201.960327,313.901184 202.029343,327.733490
	C202.042587,330.388275 201.799423,332.062592 198.370865,332.053680
	C160.373032,331.955170 122.374825,331.970551 84.376831,332.029755
	C81.704132,332.033905 80.920189,330.989349 80.972710,328.481354
	C81.087830,322.984100 81.226395,317.470490 80.925735,311.987122
	C80.712570,308.099335 81.907722,306.887695 85.910500,306.911255
	C114.241440,307.078064 142.573822,306.999573 170.905746,306.998291
	C172.238983,306.998230 173.574539,306.936157 174.904907,306.995300
	C176.895035,307.083740 178.030243,306.449829 178.000214,304.198578
	C177.870117,294.445831 178.653320,284.651459 176.126770,275.038574
	C172.846207,262.556671 164.450226,255.733414 152.216980,252.978897
	C144.411057,251.221268 136.399490,251.490036 128.535492,251.205750
	C110.559860,250.555969 92.517517,250.419617 74.557793,251.260559
	C66.359100,251.644455 58.052391,251.334198 49.846172,252.896561
	C36.224575,255.489975 25.018929,268.355835 25.006563,282.220612
	C24.984119,307.386017 24.984293,332.551453 25.006645,357.716858
	C25.019571,372.271149 36.962460,385.429169 51.414436,387.019043
	C76.254875,389.751831 101.203163,389.431000 126.082451,388.671692
	C134.409409,388.417542 142.882629,388.580109 151.295288,387.185303
	C164.661301,384.969269 176.038956,373.465546 177.006104,359.768860
	C177.554382,352.004181 177.554382,352.003296 185.398636,352.001831
	C189.565094,352.001038 193.736404,352.126740 197.896317,351.962402
	C200.725296,351.850616 202.021286,352.498993 202.066650,355.759369
	C202.448410,383.202850 182.690460,406.480988 157.353287,410.996857
	C156.377457,411.170807 155.325104,411.048920 154.926331,412.602875
	C119.645775,413.000000 84.291542,413.000000 48.468658,413.000000
	C45.550259,411.193176 42.631916,412.110809 39.950588,411.652435
	C21.987307,408.581573 5.785298,392.888885 2.157627,374.938904
	C1.998245,374.150299 1.974172,373.310608 1.253046,372.301392
	C1.000000,337.645782 1.000000,303.291534 1.000000,268.468658
z"/>
    <path fill="#641E8C" opacity="1.000000" stroke="none"
          d="
M486.468658,413.000000
	C486.401276,411.221527 485.152832,411.185913 483.958313,411.023682
	C471.476562,409.328156 461.204956,403.196045 452.880341,394.172974
	C443.760651,384.288208 438.899109,372.433136 438.965210,358.694550
	C439.087036,333.366760 439.489197,308.025818 438.861877,282.712982
	C438.239655,257.606903 456.608917,234.727081 481.434998,228.953140
	C487.649261,227.507874 494.016357,227.406586 500.116882,227.318771
	C516.070007,227.089172 532.018250,224.916901 547.936584,226.132553
	C564.099670,227.366882 580.458618,225.874603 596.438293,229.073471
	C618.606140,233.511108 635.867676,251.007309 638.949219,273.603760
	C641.453796,291.969849 639.401794,310.483276 640.011230,328.918945
	C640.125793,332.385406 637.847168,331.995544 635.685486,331.995911
	C619.688599,331.998718 603.691772,331.999664 587.694885,331.999817
	C566.365723,332.000031 545.035950,331.914459 523.708069,332.078644
	C519.990723,332.107269 518.704956,331.079437 518.925720,327.311005
	C519.227295,322.163025 519.279419,316.964264 518.913391,311.824677
	C518.615601,307.643005 520.357178,306.913971 524.072388,306.930542
	C552.399658,307.056824 580.727722,307.023254 609.055481,306.983307
	C616.873901,306.972290 616.058716,307.876678 615.949219,300.052124
	C615.849609,292.939575 616.308044,285.852753 615.128723,278.703766
	C612.484131,262.671997 600.638855,253.204147 585.262878,252.091461
	C561.191528,250.349472 537.044556,250.677917 512.942017,251.197449
	C504.582947,251.377640 496.110779,251.471771 487.751007,252.927002
	C475.013916,255.144226 463.371460,266.879089 463.119781,281.873657
	C462.691925,307.361450 462.880493,332.862518 463.051178,358.356354
	C463.144714,372.329285 475.364532,385.477264 489.153290,387.004089
	C513.987915,389.753967 538.936646,389.436737 563.815369,388.682739
	C572.311401,388.425262 580.948120,388.566010 589.520325,387.173859
	C601.908386,385.161987 613.676575,373.995514 615.018555,361.640350
	C615.284912,359.188507 615.848267,356.761597 615.996948,354.306366
	C616.129211,352.122772 617.469666,352.015289 619.059204,352.015839
	C625.057983,352.017883 631.057251,352.065277 637.055176,351.993011
	C639.178528,351.967438 639.976929,352.787140 640.013306,354.924316
	C640.255554,369.172485 636.176025,381.887909 626.761658,392.724945
	C618.002136,402.808167 607.277161,409.427460 593.843628,411.235901
	C593.464417,411.286987 593.157043,411.871704 592.908081,412.603821
	C557.645752,413.000000 522.291565,413.000000 486.468658,413.000000
z"/>
    <path fill="#641E8C" opacity="1.000000" stroke="none"
          d="
M837.468628,413.000000
	C837.401367,411.221497 836.152832,411.185913 834.958374,411.023651
	C822.476624,409.328186 812.205017,403.196045 803.880310,394.173035
	C794.760681,384.288208 789.899109,372.433136 789.965210,358.694550
	C790.086975,333.366760 790.489258,308.025879 789.861877,282.713043
	C789.239685,257.607208 807.608704,234.727295 832.434937,228.953125
	C838.649170,227.507797 845.016296,227.406708 851.116821,227.318832
	C867.069885,227.089035 883.018066,224.916916 898.936401,226.132553
	C915.099487,227.366852 931.458435,225.874710 947.438110,229.073441
	C969.602783,233.510239 986.821899,251.010117 989.952942,273.603149
	C991.804321,286.963043 991.537476,287.000031 978.186462,287.000000
	C967.722534,286.999969 967.722534,286.999969 965.943176,276.506500
	C963.831543,264.053436 949.904053,252.647491 936.554016,251.961319
	C912.283752,250.713821 887.989868,250.594467 863.726929,251.245499
	C855.548645,251.464951 847.244690,251.494385 839.025391,252.862732
	C826.181824,255.000900 814.303284,267.015717 814.096619,282.090302
	C813.749390,307.413910 813.909790,332.746155 814.037537,358.073883
	C814.109436,372.325714 826.183899,385.417542 840.370911,387.005310
	C865.203918,389.784607 890.154358,389.430756 915.032776,388.682526
	C923.697510,388.421936 932.505249,388.582062 941.235718,387.149323
	C952.226746,385.345581 964.472534,373.407745 966.090027,362.435577
	C967.361572,353.810089 966.578430,345.196289 967.070496,336.597321
	C967.293884,332.692749 965.784058,331.913635 962.199402,331.929504
	C933.372253,332.057129 904.543701,331.902100 875.717346,332.100922
	C871.179565,332.132172 869.513855,330.964172 869.912720,326.317535
	C870.310364,321.685913 870.334900,316.962463 869.906311,312.336456
	C869.475769,307.689697 871.367737,306.890533 875.563049,306.911194
	C908.055847,307.071045 940.549866,306.998749 973.043457,306.999481
	C977.875854,306.999573 982.708679,307.047974 987.540344,306.989685
	C989.637817,306.964386 991.024841,307.314178 991.014587,309.933838
	C990.946899,327.263397 991.912109,344.656555 990.748047,361.908020
	C989.093933,386.423889 969.741028,407.689850 945.327271,411.131531
	C944.783752,411.208130 944.318115,411.836578 943.908081,412.603821
	C908.645752,413.000000 873.291565,413.000000 837.468628,413.000000
z"/>
    <path fill="#009999" opacity="1.000000" stroke="none"
          d="
M98.531342,1.000000
	C98.668015,4.138059 101.098213,2.734537 102.389923,2.967305
	C110.117889,4.359890 117.853668,5.717002 125.610649,6.934147
	C127.203407,7.184065 128.000900,7.607078 127.996231,9.311837
	C127.965904,20.418175 127.980644,31.524637 127.980644,43.097294
	C117.659019,39.659218 107.972000,36.094296 97.790321,34.470509
	C85.200005,32.462582 72.637970,31.466106 60.195343,35.831154
	C55.121365,37.611179 51.306042,40.551292 50.139408,45.687370
	C48.735054,51.870007 51.365986,56.577438 57.005821,59.662212
	C69.532776,66.513977 82.738396,71.927582 95.622070,78.021599
	C107.392906,83.589241 118.987946,89.616394 128.610367,98.407013
	C135.050781,104.290672 139.290298,112.122803 140.871323,120.927971
	C143.163239,133.692154 142.150040,145.995575 136.126389,157.856522
	C129.874847,170.166183 119.559402,177.527863 107.519196,182.976578
	C87.285500,192.133224 65.692558,191.829773 44.279984,190.757294
	C31.760700,190.130234 19.186750,188.369186 6.909388,185.199661
	C4.635407,184.612625 3.947965,183.976746 3.966665,181.758469
	C4.052318,171.597733 4.073632,161.435089 3.961472,151.274857
	C3.927607,148.207016 5.011510,147.469666 7.836433,148.381073
	C20.646420,152.513947 33.784508,155.695831 47.133533,156.679016
	C59.016674,157.554245 71.304550,158.737320 82.684967,153.070755
	C93.612724,147.629593 94.454285,134.858780 84.207680,128.109451
	C74.974167,122.027458 64.502289,118.473999 54.487003,113.986534
	C41.028809,107.956421 27.231663,102.526855 15.960670,92.529678
	C10.597559,87.772682 6.431341,82.238708 4.005630,75.461014
	C3.451977,73.914047 3.065050,72.290787 1.275006,71.662216
	C1.000000,61.645771 1.000000,51.291546 1.000000,40.468658
	C3.264750,36.761391 2.424396,32.598652 4.436841,29.184479
	C13.697922,13.472776 27.863289,5.335961 45.366268,2.259309
	C47.346149,1.911289 49.430595,2.196894 51.693245,1.255228
	C67.354225,1.000000 82.708458,1.000000 98.531342,1.000000
z"/>
    <path fill="#009999" opacity="1.000000" stroke="none"
          d="
M1201.000000,148.531342
	C1199.619873,148.159332 1199.361816,149.276077 1199.052124,150.162811
	C1191.253662,172.494110 1173.405273,182.577194 1152.120239,187.891068
	C1135.121826,192.134796 1117.787964,191.613464 1100.401489,190.161011
	C1089.240479,189.228592 1078.262085,187.645294 1067.333252,185.290558
	C1064.598999,184.701447 1063.909668,183.808456 1063.946167,181.194595
	C1064.083740,171.366394 1064.080566,161.534119 1063.959229,151.705475
	C1063.916016,148.200226 1064.870972,147.559631 1068.342896,148.599228
	C1087.018799,154.191406 1106.000244,158.233566 1125.649902,156.911026
	C1133.443726,156.386459 1141.255005,155.557236 1147.388306,149.353699
	C1153.674805,142.995285 1150.883667,133.005219 1145.205811,129.107895
	C1134.177734,121.538200 1121.388184,117.587585 1109.427124,111.928879
	C1096.832397,105.970383 1083.458984,101.040558 1073.513184,90.835831
	C1061.981445,79.003799 1058.562134,64.587906 1060.749512,48.159897
	C1064.228516,22.030775 1082.129028,10.934431 1104.583008,4.013033
	C1106.862549,3.310339 1109.492065,3.643056 1111.185547,1.371383
	C1126.687622,1.000000 1142.375122,1.000000 1158.531372,1.000000
	C1164.431763,3.075053 1170.289429,1.892112 1175.825806,3.183167
	C1175.912720,3.203436 1176.065308,2.860335 1176.177856,2.866210
	C1188.595581,3.514390 1189.496216,4.460158 1189.494263,16.929203
	C1189.493164,24.250710 1189.604980,31.573915 1189.442139,38.893242
	C1189.305786,45.027912 1187.841309,46.042076 1182.127197,43.985085
	C1166.983154,38.533512 1151.541870,34.824245 1135.287109,35.498680
	C1129.751709,35.728355 1124.333008,36.455738 1119.303711,38.913700
	C1115.328369,40.856537 1112.523071,43.828510 1112.344116,48.492413
	C1112.176270,52.869732 1114.925049,55.577541 1118.366821,57.572857
	C1127.596558,62.923740 1137.515625,66.865166 1147.129761,71.431198
	C1158.700684,76.926643 1170.395386,82.187790 1180.946411,89.582993
	C1183.126953,91.111343 1185.298584,92.654015 1187.302002,94.410385
	C1194.314575,100.558105 1199.643433,107.681702 1200.742920,117.687866
	C1201.000000,128.020889 1201.000000,138.041794 1201.000000,148.531342
z"/>
    <path fill="#ffffff" opacity="1.000000" stroke="none"
          d="
M1200.716553,231.728897
	C1201.000000,291.073090 1200.974731,350.146240 1201.072388,409.219177
	C1201.077393,412.248962 1200.504395,413.104370 1197.292114,413.088654
	C1166.841064,412.939819 1136.389038,413.000000 1105.468628,413.000000
	C1102.904541,411.445679 1102.506714,409.239166 1102.507446,406.811432
	C1102.511719,393.329590 1102.367310,379.846039 1102.576172,366.366699
	C1102.682007,359.544647 1104.983032,353.332153 1109.052612,347.811554
	C1124.654175,326.647400 1140.426270,305.610077 1156.364990,284.699860
	C1168.370361,268.950012 1180.127563,253.015198 1192.099243,237.241043
	C1193.405640,235.519516 1194.589233,233.690002 1196.149414,232.180832
	C1197.377319,230.992966 1198.696045,229.850998 1200.716553,231.728897
z"/>
    <path fill="#641E8C" opacity="1.000000" stroke="none"
          d="
M386.468628,413.000000
	C385.999939,371.524689 386.125214,330.048676 385.898010,288.574585
	C385.850433,279.884827 384.805664,271.326416 378.716675,263.977661
	C372.596832,256.591614 364.836578,252.936905 355.775726,252.096359
	C337.545197,250.405197 319.210205,250.483810 300.959198,251.229279
	C291.253540,251.625702 280.957458,250.524475 271.992004,256.032745
	C262.439484,261.901703 256.042694,269.883759 256.024780,281.635773
	C255.961731,322.958099 256.004150,364.280548 255.991150,405.602966
	C255.990448,407.764038 255.847473,409.925079 255.885376,412.543060
	C247.979095,413.000000 239.958191,413.000000 231.468643,413.000000
	C231.000290,370.526581 230.936752,328.053009 231.039703,285.579834
	C231.070663,272.807617 233.962601,260.771484 241.886551,250.369049
	C252.386688,236.584671 266.217590,229.031067 283.588531,227.983948
	C297.473663,227.146942 311.387909,225.244247 325.253174,226.192261
	C339.873596,227.191925 354.643066,226.343872 369.118683,229.833237
	C388.714203,234.556747 405.721680,252.824890 409.076599,273.303101
	C409.780304,277.598450 409.996033,281.842041 409.996490,286.141785
	C410.000824,326.294891 410.001862,366.447998 409.989532,406.601105
	C409.988953,408.428986 409.851898,410.256775 409.889221,412.542297
	C402.312408,413.000000 394.624847,413.000000 386.468628,413.000000
z"/>
    <path fill="#641E8C" opacity="1.000000" stroke="none"
          d="
M672.468628,413.000000
	C672.000000,369.039825 671.816040,325.078552 672.071411,281.119873
	C672.216797,256.089233 691.488342,232.362732 717.326233,228.996201
	C735.203369,226.666901 753.194031,228.564728 771.123596,228.004257
	C773.320007,227.935608 774.023376,228.963623 774.002991,231.018173
	C773.943542,237.013947 773.887634,243.012711 774.016968,249.006287
	C774.093323,252.544678 771.689636,251.983887 769.599548,251.987274
	C756.607300,252.008286 743.611145,251.809647 730.624207,252.072098
	C722.833130,252.229538 715.304382,253.695526 708.729492,258.537903
	C702.414551,263.188751 698.980042,269.542908 697.065186,276.857117
	C695.711609,282.027252 695.987854,287.369019 695.990356,292.670380
	C696.008484,330.314667 696.003662,367.958954 695.990540,405.603241
	C695.989746,407.763733 695.852295,409.924133 695.889221,412.542297
	C688.312439,413.000000 680.624817,413.000000 672.468628,413.000000
z"/>
    <path fill="#641E8C" opacity="1.000000" stroke="none"
          d="
M1201.000000,231.600006
	C1196.905151,232.206482 1196.169678,236.172806 1194.370239,238.524750
	C1176.188965,262.288818 1158.277344,286.259460 1140.320923,310.195404
	C1130.462280,323.337006 1120.595215,336.473419 1110.868652,349.712616
	C1106.770386,355.290985 1104.998291,361.714508 1104.985596,368.657745
	C1104.959351,383.133423 1104.852295,397.608978 1104.889160,412.542297
	C1097.312378,413.000000 1089.624878,413.000000 1081.468628,413.000000
	C1081.000244,398.039642 1081.304077,383.071381 1080.913574,368.121246
	C1080.536621,353.693665 1085.713379,341.518036 1094.191162,330.283203
	C1116.263550,301.032623 1138.233765,271.705139 1160.244629,242.408234
	C1163.304565,238.335358 1166.395996,234.285645 1169.407227,230.177185
	C1170.738525,228.360855 1172.468750,227.950012 1174.607178,227.969940
	C1183.091675,228.049057 1191.577393,228.000961 1200.531372,228.000000
	C1201.000000,229.066666 1201.000000,230.133347 1201.000000,231.600006
z"/>
    <path fill="#ffffff" opacity="1.000000" stroke="none"
          d="
M1201.000000,117.531342
	C1199.613525,118.792000 1199.316895,117.721741 1199.062622,116.793526
	C1195.247070,102.864067 1184.982910,94.677887 1173.303833,87.692184
	C1155.912354,77.289574 1136.868042,70.266121 1118.934082,60.977848
	C1116.170532,59.546551 1113.217163,58.203484 1111.354736,55.641090
	C1106.966431,49.603455 1109.241333,41.361134 1115.851440,37.551723
	C1126.582642,31.367308 1138.362793,32.406761 1149.748169,33.303677
	C1162.279175,34.290855 1174.474854,37.812954 1187.000000,43.288441
	C1187.000000,39.061253 1187.000122,35.355293 1186.999878,31.649332
	C1186.999390,24.651079 1186.962891,17.652531 1187.019775,10.654746
	C1187.037476,8.468370 1186.803711,7.325013 1184.006592,6.765759
	C1176.614746,5.287864 1169.221436,3.911804 1161.740234,3.006875
	C1160.610474,2.870211 1159.352417,3.162157 1158.860352,1.405368
	C1171.465454,1.000000 1183.933472,1.137997 1196.394897,0.912185
	C1199.929810,0.848128 1201.136353,1.370570 1201.115356,5.372306
	C1200.920288,42.601612 1201.000000,79.832359 1201.000000,117.531342
z"/>
    <path fill="#ffffff" opacity="1.000000" stroke="none"
          d="
M51.531342,1.000000
	C52.460598,3.640554 50.382107,2.726587 49.176487,3.002049
	C35.393223,6.151280 22.731607,11.509486 12.685420,21.847694
	C8.054633,26.613087 5.164544,32.461658 3.017993,38.682060
	C2.725035,39.531013 2.344481,40.144772 1.307426,40.294838
	C1.000000,28.058634 1.125730,16.114990 0.909373,4.177547
	C0.856932,1.284130 1.651472,0.902778 4.293017,0.927665
	C19.881750,1.074533 35.472569,1.000000 51.531342,1.000000
z"/>
    <path fill="#ffffff" opacity="1.000000" stroke="none"
          d="
M1.000000,372.468658
	C3.205354,371.483795 2.783725,373.356079 3.179941,374.435730
	C9.907155,392.766968 22.347834,404.893280 41.327633,410.322968
	C43.577290,410.966522 46.430279,409.724182 48.073929,412.597961
	C33.240803,413.000000 18.480896,412.927826 3.723124,413.072968
	C1.336210,413.096436 0.906566,412.560211 0.932923,410.249146
	C1.074751,397.813232 1.000000,385.374847 1.000000,372.468658
z"/>
    <path fill="#009999" opacity="1.000000" stroke="none"
          d="
M592.380737,6.170261
	C593.207031,3.550464 595.061157,4.009984 596.654175,4.008978
	C615.484436,3.997084 634.315247,4.069615 653.144531,3.934043
	C656.261414,3.911602 657.061890,4.881309 657.057800,7.908334
	C656.978027,66.565376 656.973877,125.222603 657.064880,183.879608
	C657.069946,187.138794 656.158447,188.109802 652.884949,188.067596
	C639.555969,187.895767 626.220825,187.847275 612.893982,188.088760
	C608.966003,188.159943 607.895813,187.067795 607.911011,183.121048
	C608.059265,144.627869 608.000122,106.133873 608.000000,67.640114
	C607.999939,65.880493 608.000000,64.120872 608.000000,61.122963
	C602.807434,70.727356 599.872131,79.909164 596.187012,88.744583
	C585.914001,113.375420 576.051392,138.177338 566.004578,162.902710
	C562.867432,170.623154 559.520996,178.262360 556.572083,186.052948
	C555.729126,188.279739 554.822693,189.085770 552.455444,189.051178
	C543.458862,188.919662 534.457642,188.908203 525.461609,189.058273
	C523.075684,189.098083 521.902161,188.219452 521.071960,186.124664
	C504.969727,145.496796 488.831909,104.883026 472.688690,64.271416
	C472.512146,63.827213 472.166504,63.450191 470.999084,63.252247
	C470.999084,64.950615 470.999115,66.648979 470.999115,68.347343
	C470.999023,106.507820 470.933777,144.668579 471.093231,182.828384
	C471.110382,186.926132 470.157532,188.253464 465.912628,188.100647
	C456.592896,187.765137 447.250702,187.885941 437.922058,188.058105
	C434.877747,188.114288 433.936554,187.213165 433.940948,184.116501
	C434.023865,125.292831 434.018829,66.468994 433.951294,7.645278
	C433.948090,4.835866 434.773376,3.932860 437.618988,3.947575
	C457.615234,4.050982 477.612793,4.078404 497.608368,3.923375
	C500.792511,3.898688 501.980713,5.461001 502.950317,7.939751
	C516.774292,43.279057 530.613831,78.612259 544.467590,113.939896
	C545.047974,115.419861 545.803467,116.831131 546.842651,119.056580
	C562.093628,81.144836 577.108154,43.820972 592.380737,6.170261
z"/>
    <path fill="#009999" opacity="1.000000" stroke="none"
          d="
M994.293701,4.025333
	C1004.768188,4.006411 1014.769409,4.113408 1024.765747,3.937969
	C1027.969604,3.881741 1029.068481,4.778292 1029.063354,8.121555
	C1028.973633,66.450966 1028.962524,124.780624 1029.076050,183.109955
	C1029.084106,187.289322 1027.401001,188.091309 1023.712097,188.058136
	C1007.714417,187.914276 991.710510,187.795059 975.718506,188.128555
	C971.328064,188.220108 969.162537,186.462631 967.393372,182.960785
	C959.974731,168.276382 952.539307,153.599579 944.978271,138.988220
	C932.978088,115.798500 920.874573,92.662262 908.798828,69.511688
	C908.526489,68.989632 908.063721,68.566902 907.004272,67.237968
	C907.004272,70.064316 907.004272,71.824654 907.004272,73.584984
	C907.004211,109.915962 906.922424,146.247375 907.109924,182.577377
	C907.132812,187.006714 905.988708,188.282959 901.564453,188.103012
	C892.746277,187.744339 883.893799,187.755249 875.074585,188.100708
	C870.798096,188.268219 869.896484,186.869904 869.908875,182.801331
	C870.052063,135.804810 870.000000,88.807701 870.000000,41.810745
	C870.000000,30.644802 870.082825,19.477858 869.946655,8.313579
	C869.909973,5.302630 870.408569,3.883918 873.953125,3.920142
	C891.450134,4.098958 908.950439,4.063090 926.448425,3.937511
	C929.207520,3.917710 930.582092,4.923298 931.778137,7.299613
	C942.056335,27.720287 952.405823,48.105457 962.821533,68.456474
	C971.883118,86.161728 981.055664,103.810211 990.196167,121.474976
	C990.467834,121.999847 990.930054,122.426086 992.000000,123.779297
	C992.000000,120.948700 992.000000,119.193855 992.000000,117.439018
	C992.000000,81.441353 991.974487,45.443611 992.074951,9.446228
	C992.080017,7.636765 990.542786,4.944942 994.293701,4.025333
z"/>
    <path fill="#009999" opacity="1.000000" stroke="none"
          d="
M369.000000,38.001011
	C353.336456,38.001110 338.171661,38.107544 323.010315,37.925194
	C319.303406,37.880615 317.760559,38.576778 317.895111,42.758347
	C318.221863,52.912395 318.222382,63.091179 317.894958,73.245186
	C317.759979,77.430786 319.311859,78.103882 323.012573,78.075417
	C343.340485,77.919052 363.670898,78.084991 383.998749,77.925041
	C387.719513,77.895767 389.320801,78.596069 389.100311,82.770088
	C388.731598,89.749161 388.649689,96.785583 389.121429,103.752190
	C389.442352,108.491432 387.594330,109.127701 383.475769,109.088013
	C363.315155,108.893738 343.150940,109.086594 322.989777,108.922638
	C319.250031,108.892227 317.779510,109.632492 317.896301,113.777565
	C318.205933,124.766563 318.283234,135.780670 317.869720,146.762833
	C317.691223,151.502899 319.429596,152.114975 323.531952,152.085892
	C348.025665,151.912247 372.521667,152.073303 397.015656,151.922806
	C400.763885,151.899780 402.257050,152.644989 402.102783,156.784790
	C401.767944,165.770462 401.890015,174.779282 402.059235,183.774231
	C402.117096,186.848862 401.487732,188.084839 398.022797,188.074783
	C356.031830,187.953064 314.040283,187.957321 272.049255,188.068008
	C268.655975,188.076950 267.938477,186.921951 267.942749,183.781036
	C268.022339,125.293243 268.033081,66.805252 267.923004,8.317554
	C267.916260,4.727073 269.037292,3.920928 272.446136,3.930010
	C313.437378,4.039220 354.429169,4.054098 395.420197,3.911597
	C399.225006,3.898369 400.219910,4.981683 400.097290,8.670331
	C399.826141,16.826294 399.776581,25.007200 400.111725,33.158398
	C400.281677,37.291817 398.785278,38.189983 394.992035,38.078682
	C386.501251,37.829544 377.998108,38.000904 369.000000,38.001011
z"/>
    <path fill="#009999" opacity="1.000000" stroke="none"
          d="
M836.998657,183.786377
	C837.351379,186.981827 836.362549,188.053604 833.431458,188.048096
	C791.106140,187.968552 748.780579,187.964203 706.455261,188.054703
	C703.392151,188.061249 702.934570,186.806503 702.957703,184.197510
	C703.059204,172.700562 703.000122,161.202164 703.000061,149.704300
	C702.999939,102.879646 703.050049,56.054840 702.911255,9.230596
	C702.899353,5.214268 703.722351,3.878358 708.032654,3.896795
	C748.691040,4.070707 789.350647,4.044998 830.009399,3.925497
	C833.745544,3.914516 835.288818,4.626079 835.100769,8.779798
	C834.746948,16.595654 834.761536,24.448971 835.091858,32.266903
	C835.277344,36.658051 834.233398,38.178009 829.462524,38.124111
	C805.636658,37.854931 781.805603,38.077179 757.977661,37.922947
	C754.219910,37.898624 752.763855,38.660797 752.895752,42.789513
	C753.214905,52.777462 753.192932,62.788078 752.904907,72.777924
	C752.788208,76.824539 753.745483,78.157326 758.044189,78.106964
	C778.371033,77.868835 798.702820,78.090508 819.031006,77.920914
	C822.807373,77.889412 824.309570,78.682480 824.098145,82.801567
	C823.739868,89.781876 823.759888,96.805313 824.091370,103.788277
	C824.284729,107.860062 823.222839,109.154999 818.942993,109.105331
	C798.616150,108.869438 778.284302,109.091675 757.956177,108.918625
	C754.159363,108.886314 752.785767,109.721001 752.897156,113.810272
	C753.196411,124.800079 753.184692,135.808182 752.902771,146.798904
	C752.798218,150.875046 753.801025,152.140381 758.065186,152.103592
	C782.725464,151.890884 807.388916,152.077728 832.049988,151.918518
	C835.856506,151.893936 837.251465,152.733170 837.100220,156.816925
	C836.773499,165.636734 836.999634,174.477020 836.998657,183.786377
z"/>
    <path fill="#009999" opacity="1.000000" stroke="none"
          d="
M169.999939,105.000000
	C169.999969,72.838402 170.071762,41.176449 169.912598,9.515655
	C169.891815,5.383185 170.549301,3.746301 175.251526,3.869136
	C189.239746,4.234546 203.245087,4.110177 217.240356,3.923828
	C220.784073,3.876644 222.101257,4.562204 222.092072,8.506750
	C221.956223,66.830421 221.974060,125.154549 222.062057,183.478409
	C222.067062,186.783478 221.443146,188.135544 217.750351,188.081985
	C203.255722,187.871750 188.754486,187.872849 174.259811,188.081467
	C170.580826,188.134415 169.918655,186.807617 169.934006,183.487167
	C170.054245,157.491898 170.000214,131.495819 169.999939,105.000000
z"/>
    <path fill="#641E8C" opacity="1.000000" stroke="none"
          d="
M1026.254272,268.800354
	C1014.951294,255.466217 1003.891174,242.396057 992.830994,229.325882
	C992.987366,228.883926 993.143677,228.441956 993.299988,228.000000
	C998.511353,228.000000 1003.722656,228.000000 1008.933960,228.000000
	C1024.258057,228.000000 1024.283813,227.978409 1033.904297,239.456314
	C1050.966675,259.812927 1068.019287,280.177795 1085.023926,300.582581
	C1091.662598,308.548615 1091.599976,308.602905 1085.274658,317.405121
	C1083.164062,320.342133 1080.996948,323.239990 1078.947510,326.218872
	C1077.646973,328.109283 1076.098267,328.781647 1074.514404,326.892059
	C1058.627808,307.938354 1042.804810,288.931488 1026.971191,269.933502
	C1026.763916,269.684784 1026.652954,269.355865 1026.254272,268.800354
z"/>
</svg>